<svg version="1.1" id="Lager_1" xmlns="http://www.w3.org/2000/svg" x="0" y="0" viewBox="0 0 1168 2084" style="enable-background:new 0 0 1168 2084" xml:space="preserve"><path d="M1070.7 3.7c2.3-2.2 8.3-6.3 8-10.1-.2-2.5-1.9-4.4-4.5-4.5-4.4-.2-10 6.9-12.7 9.5-8.1 7.7-15.7 15.9-22.8 24.5-14.1 17.1-31.9 40.1-30.3 63.6.4 6.1 2.9 11.4 4.5 17.3 2.8 10.3 3.9 21.4 2 32-3.1 17.6-14.5 32.4-32.4 36.7-45.5 10.8-89.9-29.4-115.7-61.7-23.9-29.8-44.9-70.5-85.9-78.7-35.2-7.1-74 12.5-86.6 46.6-13.5 36.4 3.1 73.3 33.9 94 9.1 6.1 18.8 12.1 24.2 22 5.7 10.5 5.5 23.4 1.7 34.6-7.8 22.7-29 35.2-51.8 39.1-46.8 7.9-93.9-14.9-133.2-37.8-38.6-22.5-75.3-48.4-117.2-64.7-45-17.5-94.1-24.8-142.2-21.6-43.2 2.9-89.6 12.8-126.5 36.4-32 20.5-54.9 54.2-43.6 93.3 11.6 39.8 48.9 70.8 82.2 92.8 69 45.4 156.3 62.6 237.2 46.2 60.8-12.3 113.6-47.9 171.8-68 50.2-17.4 103.8-24.7 156.9-21.7 24 1.3 52.2 2.7 74.3 13.4 23.4 11.3 28.2 36.9 33.6 59.9 9.7 41 18.5 91.5-7.1 128.7-29.2 42.4-90.6 46.1-137.2 43.7-92.6-4.8-188.6-41.4-279.5-5.4-36.6 14.5-66.9 40.9-82.4 77.5-16 37.8-16 82.1-.5 120.1 15.1 36.9 43.4 67.4 77.4 87.7 40.6 24.3 87.7 31.3 134.4 32.3 85.5 1.8 192.6-15.8 260.1 51.1 13.7 13.5 24.7 30 37.4 44.5 13.9 15.8 28.1 31.4 40.6 48.4 10.9 14.9 21.8 31.6 25.3 50 3.8 20.2-3.6 42.3-11.9 60.5-6.4 14-14.6 29.1-27.6 37.9-11.5 7.8-23 15.4-34.8 22.7-12.4 7.7-23.9 15.6-38.8 16.3-20.5 1-40.9-2.5-60.5-8.1-42.4-12.2-81.8-34.2-117.6-59.6-17.3-12.3-33.9-25.7-49.4-40.3-16.3-15.3-28.8-33-41.5-51.3-24.4-35.2-52.8-64.8-97.5-70.1-20.2-2.4-40.2.7-58.9 8.5-17 7.1-35.3 12.3-51.2 21.9-13.7 8.2-23.7 20.3-26.6 36.3-2.2 12.5 3.1 26 6.9 37.8 2.8 8.7 5 18.6 12.7 24.3 10.4 7.7 22.8 13.4 34.3 19.2 11 5.5 22.2 11.6 33.8 15.7 16.9 6 35.6 8.4 52.9 13.3 34.1 9.8 67.9 20.6 102 30.3 58.8 16.6 117.5 38.5 170.5 69 37.6 21.6 102.9 64.7 76.6 116.6-21.9 43.2-78.1 45-120.6 42.3-66.2-4.2-132-23.5-193.1-48.8-55.1-22.8-111.8-51.9-152.9-96.1-47.8-51.5-149.9-71.3-192.7-3.1-18.5 29.5-22.6 68.1-10.3 100.7 14.1 37.6 44.6 66.3 79.2 85.4 42.2 23.3 90.4 31.6 137.6 37.8 52.5 6.9 104.5 14.1 156.1 26.5 52 12.5 103.1 28.7 152.7 48.7 42.7 17.2 91.9 40.3 105.5 88.5 6.3 22.3 3.5 47.5-13.3 64.6-15 15.1-36.7 20.6-57.4 21.3-49.3 1.7-95.4-25-145-18.5-41.4 5.5-76 31.4-105.5 59.4-31.3 29.8-66.1 63.4-84.6 103.2-8.3 17.9-13.4 38.2-10.4 58 3.2 21.1 19.9 26.1 38.3 30.1 44.4 9.5 94.4 17.5 134.7-9.2 39.5-26.1 39.5-70.8 36.2-113.4-.8-10.4-3.6-23.9 1.1-33.7 5.9-12.2 24.1-13.2 36-14.6 22-2.7 44.8-2.1 66 4.5 41.6 12.8 61.4 48.3 79.8 84.7 15.1 29.9 31.6 62.8 63.6 77.8 31.9 14.9 68 4.8 94.4-16.4 31.6-25.3 47.6-62.7 46.8-102.8-1-47.8-22.2-92.8-46.5-132.9-24-39.7-60.1-82.7-50.1-132.5 4.6-22.9 18.2-40.5 40.6-48.3 19.9-6.9 42.3-10 63.3-11.2 40.5-2.3 87.6 9.3 89.4 58.1.7 19.6-7 37.2-9.3 56.2-1 8.6-.5 17.4.3 26 2.4 24.2 7.7 48.2 12.8 72 13.5 63.2 28.9 126.6 32 191.4 2.5 52.9-3.1 114.6-47.6 149.9-4.5 3.6 1.9 9.9 6.4 6.4 44.1-35 52.1-95.4 50.6-148.1-1.8-64.3-16.5-127.6-30.1-190.2-5.5-25.4-11.4-50.9-14.5-76.7-1-8.8-1.9-17.8-1.2-26.7 1.2-16 7.6-31.3 9.2-47.4 3.7-39.3-18.6-69.3-57-77.2-17.6-3.6-35.9-3.3-53.6-1.3-20 2.2-41.7 5.1-60.2 13.2-35.1 15.4-46.4 56.1-39.6 91.4 9.3 47.9 45.6 86.7 67.4 129.1 21.9 42.7 39.1 95.6 22.6 143.1-12.8 37-48.5 70.9-88.8 73.4s-65.8-29.2-83.1-61.3c-16.9-31.4-30.4-67.1-59.4-89.7-32.2-25.2-75.9-28-114.9-21.5-18.9 3.1-34.7 9.6-36.4 30.8-1.8 23.2 4.3 46.5 2.5 69.8-1.9 24.8-12.1 46.6-33.1 60.7-19.7 13.2-43.6 17.7-67 17.1-14.4-.3-28.8-2.5-42.9-5.2-12.1-2.3-26.1-3.7-37.3-9-23.8-11.1-11.4-51.7-3.1-69.6 18.6-39.9 53.8-73.9 85.6-103.7 34.9-32.7 76.3-59.4 126-55 45.9 4 89.3 25.7 136.1 16.8 38-7.3 65.6-37.2 62.2-77.1-3.6-43.1-35.4-73.7-71.6-93.1-43.5-23.3-92.2-39-139.4-53-50.6-15-102.4-26.5-154.6-34.1-51.3-7.5-103.7-10.8-153.3-27.1-41.9-13.8-82.9-39.2-105.9-77.9-20.2-34-21.8-76.6-1.4-111.1 22.4-37.8 66.5-47 107.2-38.3 20.8 4.5 41 13.5 57.7 26.8 11.5 9.2 20.7 20.9 31.7 30.7 45.7 40.7 103.5 68.3 160.3 89.8 59.7 22.7 123.9 40 188.1 41.7 40.7 1.1 92.5-4.1 113.9-44.1 25.9-48.3-13.8-89.3-51.8-115.6-51.4-35.6-111.9-59-171.1-78-30.8-9.9-62.2-17.5-93-27.2-15.7-5-31.3-10-47.2-14.3-16-4.3-33.1-6.2-48.2-12.9-13.2-5.8-26.2-12.3-39-19.1-7.6-4-19.8-8.4-24.2-16.1-6.4-11.3-10.3-27.5-12.4-40.3-3-18.6 11.7-33.3 26.8-41.2 16.9-8.9 36.5-16.4 54.7-22.4 21.8-7.1 45.5-6.7 67.2.5 46.4 15.4 65.6 61.4 94.8 96.3 25.6 30.5 60.3 55.5 93.8 76.4 35.9 22.4 75.7 41.5 117.7 49 16 2.9 35 5.5 51.1 1.8 12-2.8 23.6-11.4 33.8-17.8 11.5-7.2 22.9-14.5 34-22.3 12.2-8.5 20.5-22 27-35.1 15.9-31.8 22.8-65.2 6.2-97.9-18.1-35.6-48.4-63.6-73.6-94.1-11.8-14.3-22.1-28.5-37-39.8-15.3-11.7-32.7-20.2-50.8-26.5-41-14.2-84.8-16.3-127.8-15.7-52.5.7-106.4 4.5-157.5-10.4-42.4-12.4-81.1-39-105.4-76.2-24.4-37.4-31.8-84.2-18.6-127 13.4-43.4 47.5-74.2 89.9-88.7 94.2-32.1 190.9 9 286.3 9.3 43 .1 94.3-7.1 123-42.9 24.8-30.9 24.5-72.7 18.7-110-3.4-21.5-7.7-44.3-15.7-64.6-7.6-19.3-21.8-31.2-41.5-37.2-22.1-6.7-46.6-8.7-69.6-9.8-25.5-1.2-51 0-76.3 3.5-40.1 5.5-78.6 17.1-115.6 33.4-29.2 12.9-58 26.5-87.4 38.8-73.9 30.9-161.9 25.5-234.4-6.8-39.9-17.7-80-44.6-106-80.3-13.7-18.9-23-42.1-16.7-65.6 5.5-20.5 21.5-36.4 38.8-47.8 39.5-25.9 91.1-35.6 137.6-36.6 50.1-1.1 100.5 9.2 145.7 30.7 41.1 19.6 77.8 47.1 118.2 67.9 36.6 18.8 79.9 34 121.4 24.8 34.8-7.7 67.5-42.1 53.5-79.9-7.2-19.3-26.1-26.6-40.8-38.9-16.4-13.8-24.6-35.4-23.4-56.6 2.6-45.6 54.4-74.5 95.2-54.7 19.8 9.6 34 27.5 46.8 44.9 13.1 17.7 25.8 35.4 41.7 50.6 26.1 25 67 50.1 104.8 39 32.8-9.6 42.2-46.2 34.9-76.3-3.1-13-6.8-21.3-2.2-34.5 4.1-11.9 11.4-22.8 19-32.8 7.3-9.6 15.3-18.6 23.8-27.1 3-3 6-6 9.2-8.8 2.5-2.3 5.1-2.8 2.2-3l-4.5-4.5c-.2-3.5 1.8-2.4-.6-.9-1.7 1-3.3 3.3-4.8 4.6-4.3 3.7 2.1 10.1 6.3 6.1z" style="fill:#ff2ca7"/></svg>