<svg version="1.1" id="Lager_1" xmlns="http://www.w3.org/2000/svg" x="0" y="0" viewBox="0 0 90.9 492.6" style="enable-background:new 0 0 90.9 492.6" xml:space="preserve"><style>.st1{fill:#ff2ca7}</style><path style="fill:#ff2ca7;stroke:#ff2ca7;stroke-width:10px;stroke-miterlimit:10" d="m45.8 0 .5 488.1"/><path class="st1" d="M49.1 483.8c-14.7-12-29.3-24.3-41.4-39-1.5-1.8-4.8-1.7-6.4 0-1.8 1.9-1.6 4.4 0 6.4 12.1 14.7 26.7 27 41.4 39 1.8 1.5 4.6 1.9 6.4 0 1.5-1.7 1.9-4.8 0-6.4z"/><path class="st1" d="M49.9 491.3c13.7-13.6 26.6-28 39.7-42.1 1.6-1.7 1.8-4.7 0-6.4-1.7-1.6-4.6-1.8-6.4 0-13.1 14.1-26 28.5-39.7 42.1-1.7 1.7-1.8 4.7 0 6.4 1.9 1.6 4.7 1.7 6.4 0z"/></svg>