<?xml version="1.0" encoding="utf-8"?>
<!-- Generator: Adobe Illustrator 28.1.0, SVG Export Plug-In . SVG Version: 6.00 Build 0)  -->
<svg version="1.1" id="Lager_1" xmlns="http://www.w3.org/2000/svg" xmlns:xlink="http://www.w3.org/1999/xlink" x="0px" y="0px"
	 viewBox="0 0 1168 2084" style="enable-background:new 0 0 1168 2084;" xml:space="preserve">
<style type="text/css">
	.st0{fill:#FF2CA7;}
</style>
<g>
	<g>
		<path class="st0" d="M1070.7,3.7c2.3-2.2,8.3-6.3,8-10.1c-0.2-2.5-1.9-4.4-4.5-4.5c-4.4-0.2-10,6.9-12.7,9.5
			c-8.1,7.7-15.7,15.9-22.8,24.5c-14.1,17.1-31.9,40.1-30.3,63.6c0.4,6.1,2.9,11.4,4.5,17.3c2.8,10.3,3.9,21.4,2,32
			c-3.1,17.6-14.5,32.4-32.4,36.7c-45.5,10.8-89.9-29.4-115.7-61.7c-23.9-29.8-44.9-70.5-85.9-78.7c-35.2-7.1-74,12.5-86.6,46.6
			c-13.5,36.4,3.1,73.3,33.9,94c9.1,6.1,18.8,12.1,24.2,22c5.7,10.5,5.5,23.4,1.7,34.6c-7.8,22.7-29,35.2-51.8,39.1
			c-46.8,7.9-93.9-14.9-133.2-37.8c-38.6-22.5-75.3-48.4-117.2-64.7c-45-17.5-94.1-24.8-142.2-21.6c-43.2,2.9-89.6,12.8-126.5,36.4
			c-32,20.5-54.9,54.2-43.6,93.3c11.6,39.8,48.9,70.8,82.2,92.8c69,45.4,156.3,62.6,237.2,46.2c60.8-12.3,113.6-47.9,171.8-68
			c50.2-17.4,103.8-24.7,156.9-21.7c24,1.3,52.2,2.7,74.3,13.4c23.4,11.3,28.2,36.9,33.6,59.9c9.7,41,18.5,91.5-7.1,128.7
			c-29.2,42.4-90.6,46.1-137.2,43.7c-92.6-4.8-188.6-41.4-279.5-5.4c-36.6,14.5-66.9,40.9-82.4,77.5c-16,37.8-16,82.1-0.5,120.1
			c15.1,36.9,43.4,67.4,77.4,87.7c40.6,24.3,87.7,31.3,134.4,32.3c85.5,1.8,192.6-15.8,260.1,51.1c13.7,13.5,24.7,30,37.4,44.5
			c13.9,15.8,28.1,31.4,40.6,48.4c10.9,14.9,21.8,31.6,25.3,50c3.8,20.2-3.6,42.3-11.9,60.5c-6.4,14-14.6,29.1-27.6,37.9
			c-11.5,7.8-23,15.4-34.8,22.7c-12.4,7.7-23.9,15.6-38.8,16.3c-20.5,1-40.9-2.5-60.5-8.1c-42.4-12.2-81.8-34.2-117.6-59.6
			c-17.3-12.3-33.9-25.7-49.4-40.3c-16.3-15.3-28.8-33-41.5-51.3c-24.4-35.2-52.8-64.8-97.5-70.1c-20.2-2.4-40.2,0.7-58.9,8.5
			c-17,7.1-35.3,12.3-51.2,21.9c-13.7,8.2-23.7,20.3-26.6,36.3c-2.2,12.5,3.1,26,6.9,37.8c2.8,8.7,5,18.6,12.7,24.3
			c10.4,7.7,22.8,13.4,34.3,19.2c11,5.5,22.2,11.6,33.8,15.7c16.9,6,35.6,8.4,52.9,13.3c34.1,9.8,67.9,20.6,102,30.3
			c58.8,16.6,117.5,38.5,170.5,69c37.6,21.6,102.9,64.7,76.6,116.6c-21.9,43.2-78.1,45-120.6,42.3c-66.2-4.2-132-23.5-193.1-48.8
			c-55.1-22.8-111.8-51.9-152.9-96.1c-47.8-51.5-149.9-71.3-192.7-3.1c-18.5,29.5-22.6,68.1-10.3,100.7
			c14.1,37.6,44.6,66.3,79.2,85.4c42.2,23.3,90.4,31.6,137.6,37.8c52.5,6.9,104.5,14.1,156.1,26.5c52,12.5,103.1,28.7,152.7,48.7
			c42.7,17.2,91.9,40.3,105.5,88.5c6.3,22.3,3.5,47.5-13.3,64.6c-15,15.1-36.7,20.6-57.4,21.3c-49.3,1.7-95.4-25-145-18.5
			c-41.4,5.5-76,31.4-105.5,59.4c-31.3,29.8-66.1,63.4-84.6,103.2c-8.3,17.9-13.4,38.2-10.4,58c3.2,21.1,19.9,26.1,38.3,30.1
			c44.4,9.5,94.4,17.5,134.7-9.2c39.5-26.1,39.5-70.8,36.2-113.4c-0.8-10.4-3.6-23.9,1.1-33.7c5.9-12.2,24.1-13.2,36-14.6
			c22-2.7,44.8-2.1,66,4.5c41.6,12.8,61.4,48.3,79.8,84.7c15.1,29.9,31.6,62.8,63.6,77.8c31.9,14.9,68,4.8,94.4-16.4
			c31.6-25.3,47.6-62.7,46.8-102.8c-1-47.8-22.2-92.8-46.5-132.9c-24-39.7-60.1-82.7-50.1-132.5c4.6-22.9,18.2-40.5,40.6-48.3
			c19.9-6.9,42.3-10,63.3-11.2c40.5-2.3,87.6,9.3,89.4,58.1c0.7,19.6-7,37.2-9.3,56.2c-1,8.6-0.5,17.4,0.3,26
			c2.4,24.2,7.7,48.2,12.8,72c13.5,63.2,28.9,126.6,32,191.4c2.5,52.9-3.1,114.6-47.6,149.9c-4.5,3.6,1.9,9.9,6.4,6.4
			c44.1-35,52.1-95.4,50.6-148.1c-1.8-64.3-16.5-127.6-30.1-190.2c-5.5-25.4-11.4-50.9-14.5-76.7c-1-8.8-1.9-17.8-1.2-26.7
			c1.2-16,7.6-31.3,9.2-47.4c3.7-39.3-18.6-69.3-57-77.2c-17.6-3.6-35.9-3.3-53.6-1.3c-20,2.2-41.7,5.1-60.2,13.2
			c-35.1,15.4-46.4,56.1-39.6,91.4c9.3,47.9,45.6,86.7,67.4,129.1c21.9,42.7,39.1,95.6,22.6,143.1c-12.8,37-48.5,70.9-88.8,73.4
			c-40.3,2.5-65.8-29.2-83.1-61.3c-16.9-31.4-30.4-67.1-59.4-89.7c-32.2-25.2-75.9-28-114.9-21.5c-18.9,3.1-34.7,9.6-36.4,30.8
			c-1.8,23.2,4.3,46.5,2.5,69.8c-1.9,24.8-12.1,46.6-33.1,60.7c-19.7,13.2-43.6,17.7-67,17.1c-14.4-0.3-28.8-2.5-42.9-5.2
			c-12.1-2.3-26.1-3.7-37.3-9c-23.8-11.1-11.4-51.7-3.1-69.6c18.6-39.9,53.8-73.9,85.6-103.7c34.9-32.7,76.3-59.4,126-55
			c45.9,4,89.3,25.7,136.1,16.8c38-7.3,65.6-37.2,62.2-77.1c-3.6-43.1-35.4-73.7-71.6-93.1c-43.5-23.3-92.2-39-139.4-53
			c-50.6-15-102.4-26.5-154.6-34.1c-51.3-7.5-103.7-10.8-153.3-27.1c-41.9-13.8-82.9-39.2-105.9-77.9c-20.2-34-21.8-76.6-1.4-111.1
			c22.4-37.8,66.5-47,107.2-38.3c20.8,4.5,41,13.5,57.7,26.8c11.5,9.2,20.7,20.9,31.7,30.7c45.7,40.7,103.5,68.3,160.3,89.8
			c59.7,22.7,123.9,40,188.1,41.7c40.7,1.1,92.5-4.1,113.9-44.1c25.9-48.3-13.8-89.3-51.8-115.6c-51.4-35.6-111.9-59-171.1-78
			c-30.8-9.9-62.2-17.5-93-27.2c-15.7-5-31.3-10-47.2-14.3c-16-4.3-33.1-6.2-48.2-12.9c-13.2-5.8-26.2-12.3-39-19.1
			c-7.6-4-19.8-8.4-24.2-16.1c-6.4-11.3-10.3-27.5-12.4-40.3c-3-18.6,11.7-33.3,26.8-41.2c16.9-8.9,36.5-16.4,54.7-22.4
			c21.8-7.1,45.5-6.7,67.2,0.5c46.4,15.4,65.6,61.4,94.8,96.3c25.6,30.5,60.3,55.5,93.8,76.4c35.9,22.4,75.7,41.5,117.7,49
			c16,2.9,35,5.5,51.1,1.8c12-2.8,23.6-11.4,33.8-17.8c11.5-7.2,22.9-14.5,34-22.3c12.2-8.5,20.5-22,27-35.1
			c15.9-31.8,22.8-65.2,6.2-97.9c-18.1-35.6-48.4-63.6-73.6-94.1c-11.8-14.3-22.1-28.5-37-39.8c-15.3-11.7-32.7-20.2-50.8-26.5
			c-41-14.2-84.8-16.3-127.8-15.7c-52.5,0.7-106.4,4.5-157.5-10.4c-42.4-12.4-81.1-39-105.4-76.2c-24.4-37.4-31.8-84.2-18.6-127
			c13.4-43.4,47.5-74.2,89.9-88.7c94.2-32.1,190.9,9,286.3,9.3c43,0.1,94.3-7.1,123-42.9c24.8-30.9,24.5-72.7,18.7-110
			c-3.4-21.5-7.7-44.3-15.7-64.6c-7.6-19.3-21.8-31.2-41.5-37.2c-22.1-6.7-46.6-8.7-69.6-9.8c-25.5-1.2-51,0-76.3,3.5
			c-40.1,5.5-78.6,17.1-115.6,33.4c-29.2,12.9-58,26.5-87.4,38.8c-73.9,30.9-161.9,25.5-234.4-6.8c-39.9-17.7-80-44.6-106-80.3
			c-13.7-18.9-23-42.1-16.7-65.6c5.5-20.5,21.5-36.4,38.8-47.8c39.5-25.9,91.1-35.6,137.6-36.6c50.1-1.1,100.5,9.2,145.7,30.7
			c41.1,19.6,77.8,47.1,118.2,67.9c36.6,18.8,79.9,34,121.4,24.8c34.8-7.7,67.5-42.1,53.5-79.9c-7.2-19.3-26.1-26.6-40.8-38.9
			c-16.4-13.8-24.6-35.4-23.4-56.6c2.6-45.6,54.4-74.5,95.2-54.7c19.8,9.6,34,27.5,46.8,44.9c13.1,17.7,25.8,35.4,41.7,50.6
			c26.1,25,67,50.1,104.8,39c32.8-9.6,42.2-46.2,34.9-76.3c-3.1-13-6.8-21.3-2.2-34.5c4.1-11.9,11.4-22.8,19-32.8
			c7.3-9.6,15.3-18.6,23.8-27.1c3-3,6-6,9.2-8.8c2.5-2.3,5.1-2.8,2.2-3c-1.5-1.5-3-3-4.5-4.5c-0.2-3.5,1.8-2.4-0.6-0.9
			c-1.7,1-3.3,3.3-4.8,4.6C1060.1,1.3,1066.5,7.7,1070.7,3.7L1070.7,3.7z"/>
	</g>
</g>
</svg>
