<?xml version="1.0" encoding="UTF-8"?>
<svg id="Lager_1" data-name="Lager 1" xmlns="http://www.w3.org/2000/svg" viewBox="0 0 869.16 551.71">
  <path d="M3.25,106.59c56.51,9.63,113.35,17.3,170.39,22.93,57.48,5.68,115.17,9.3,172.92,10.85,28.7.77,57.42,1.04,86.14.78,24.8-.23,51.42-1.08,73.48-13.83,18.36-10.62,33.54-29.96,32.66-52.04-.87-21.96-16.24-39.67-33.51-51.64-38.36-26.59-94.97-34.77-132.94-3.31-35.95,29.78-32.82,84.65-11.96,122.26,19.76,35.61,56.33,62.48,96.98,67.96,41.62,5.6,81.15-13.01,116.56-32.67,35.33-19.61,71.06-43.62,112-49.08,23.95-3.19,47.86,1.52,69.85,11.17,22.24,9.76,43.51,23.33,61.7,39.43,16.78,14.86,32.04,33.05,38.94,54.71,6.47,20.33,6.36,48.64-14.31,60.76-9.3,5.45-20.39,7.3-30.99,8.09-13.54,1.02-27.19.82-40.74.03-27.76-1.62-55.25-5.98-82.78-9.65-27.71-3.7-55.67-6.75-83.67-5.53-23.1,1-50.42,5.29-62.34,27.93-11.51,21.87,4.18,45.03,18.78,61.07,15.76,17.32,36.13,29.49,58.54,36.04,12.91,3.77,26.19,6.02,39.29,8.99,6.37,1.44,12.98,2.83,19.08,5.19s7.6,6.77,7.18,13.16c-1.37,20.84-12.77,40.31-28.43,53.73-14.31,12.27-32.93,19.57-51.87,18.54-18.21-.99-36.5-5.93-53.66-11.88-8.7-3.02-17.27-6.49-25.4-10.83-7.44-3.97-13.3-8.64-19.28-14.52-17.78-17.49-36.31-34.28-56.19-49.38-23.91-18.17-52.63-37.07-83.63-38.59-22.34-1.1-41.3,10-54.59,27.42-16.69,21.89-25.15,49.73-31.72,76.07-4.09,16.4-7.32,33-10.18,49.65-.97,5.66,7.7,8.1,8.68,2.39,5.38-31.28,11.68-63.05,23.76-92.53,8.01-19.55,19.89-40.66,39.98-49.79,21.52-9.79,46.36-1.31,66.03,9.01,16.73,8.78,32.2,19.92,46.85,31.81,9.3,7.55,18.31,15.46,27.11,23.59,8.59,7.94,16.49,17.07,25.66,24.32,13.41,10.6,30.45,16.93,46.57,22.07,16.85,5.38,34.79,9.83,52.55,10.29,39.38,1.02,75.87-30.68,84.74-68.24,2.18-9.24,4.7-22.24-2.81-29.73-3.82-3.81-9.24-5.47-14.28-6.93-6.33-1.84-12.76-3.32-19.2-4.7-24.46-5.25-48.49-10-69.37-24.63-9.34-6.54-17.74-14.59-24.73-23.59-6.85-8.81-14.75-20.1-14.74-31.7.01-11.1,7.88-20.83,17.08-26.25,10.94-6.46,23.98-8.07,36.44-8.79,54.88-3.19,108.76,10.41,163.21,14.49,13.79,1.03,27.64,1.46,41.47.84,10.79-.48,21.83-1.51,32.07-5.14,9.82-3.47,18.61-9.26,24.37-18.09,6.19-9.49,8.25-21.34,8.15-32.51-.38-45.02-36.84-80.65-71.85-103.85-20.92-13.86-43.86-25.8-68.57-31.07-20.92-4.47-42.29-3.47-62.9,2.07-39.47,10.6-73.6,34.58-109.38,53.39-35.49,18.65-75.35,32.91-115.37,20.68s-70.82-43.8-82.5-82.37c-6.4-21.13-7.09-45.93,2.48-66.24,9.54-20.24,29.36-33.49,50.8-38.31,24.8-5.58,51.14.52,73.57,11.57,18.68,9.2,38.36,24.14,43.39,45.48s-9.59,41.66-27.75,51.94c-22.5,12.75-50.01,12.18-75.07,12.33-56.64.34-113.28-1.31-169.8-4.95s-113.24-9.26-169.52-16.92c-27.08-3.68-54.1-7.84-81.05-12.43-5.67-.97-8.1,7.71-2.39,8.68h0Z" fill="#ff2ca7" stroke-width="0"/>
  <path d="M239.29,513.65c3.14,6.17,7.75,11.66,12.13,16.97s9.05,10.5,13.51,15.81c1.26,1.5,2.48,3,4.2,4.02,2.48,1.47,5.52,1.59,8.25.76,2.89-.88,5.71-2.43,8.37-3.85,6.04-3.21,11.88-6.83,17.56-10.64s11.86-8.03,16.92-12.99c1.68-1.65,1.78-4.73,0-6.36s-4.57-1.76-6.36,0-3.72,3.32-5.68,4.87c-.62.49.65-.49-.17.13-.29.22-.58.44-.87.66-.64.48-1.29.96-1.94,1.43-1.32.96-2.65,1.9-4,2.83-5.49,3.78-11.13,7.35-16.94,10.62-2.42,1.36-4.87,2.68-7.39,3.85-.45.21-.91.41-1.37.61-.57.25.24-.09.28-.12-.17.13-.65.23-.82.29-.2.06-.44.09-.63.17-.56.24.81-.01-.3.04-.06,0-.74-.06-.25.02.64.1-.68-.23,0,0,.49.17-.04-.04-.13-.09-.23-.13-.54-.5.02.05-.64-.63-1.23-1.27-1.8-1.95-4.12-4.94-8.42-9.72-12.55-14.65-1.27-1.52-2.53-3.05-3.77-4.59-.34-.43-.68-.86-1.02-1.29-.16-.21-1.03-1.32-.4-.51-.57-.74-1.14-1.49-1.69-2.24-1.97-2.67-3.88-5.42-5.38-8.38-1.07-2.1-4.2-2.88-6.16-1.61-2.15,1.38-2.76,3.91-1.61,6.16h0Z" fill="#ff2ca7" stroke-width="0"/>
</svg>