<?xml version="1.0" encoding="utf-8"?>
<!-- Generator: Adobe Illustrator 28.1.0, SVG Export Plug-In . SVG Version: 6.00 Build 0)  -->
<svg version="1.1" id="Lager_1" xmlns="http://www.w3.org/2000/svg" xmlns:xlink="http://www.w3.org/1999/xlink" x="0px" y="0px"
	 viewBox="0 0 90.9 492.6" style="enable-background:new 0 0 90.9 492.6;" xml:space="preserve">
<style type="text/css">
	.st0{fill:#FF2CA7;stroke:#FF2CA7;stroke-width:10;stroke-miterlimit:10;}
	.st1{fill:#FF2CA7;}
</style>
<line class="st0" x1="45.8" y1="0" x2="46.3" y2="488.1"/>
<g>
	<g>
		<path class="st1" d="M49.1,483.8c-14.7-12-29.3-24.3-41.4-39c-1.5-1.8-4.8-1.7-6.4,0c-1.8,1.9-1.6,4.4,0,6.4
			c12.1,14.7,26.7,27,41.4,39c1.8,1.5,4.6,1.9,6.4,0C50.6,488.5,51,485.4,49.1,483.8L49.1,483.8z"/>
	</g>
</g>
<g>
	<g>
		<path class="st1" d="M49.9,491.3c13.7-13.6,26.6-28,39.7-42.1c1.6-1.7,1.8-4.7,0-6.4c-1.7-1.6-4.6-1.8-6.4,0
			c-13.1,14.1-26,28.5-39.7,42.1c-1.7,1.7-1.8,4.7,0,6.4C45.4,492.9,48.2,493,49.9,491.3L49.9,491.3z"/>
	</g>
</g>
</svg>
